<svg fill="none" height="42" viewBox="0 0 320 42" width="320" xmlns="http://www.w3.org/2000/svg"><path d="m24.1359.0570963h-19.08205c-1.34037 0-2.62583.5257527-3.57361 1.4616037-.947782.93584-1.48024 2.20512-1.48024 3.52861v31.90539c0 1.3235.532458 2.5928 1.48024 3.5286.94778.9359 2.23324 1.4616 3.57361 1.4616h19.08205c1.3404 0 2.6258-.5257 3.5736-1.4616.9478-.9358 1.4802-2.2051 1.4802-3.5286v-31.90539c0-.65533-.1307-1.30423-.3847-1.90967-.2539-.60544-.6262-1.15556-1.0955-1.61894-.4693-.46339-1.0264-.830965-1.6396-1.081746-.6132-.250782-1.2703-.3798577-1.934-.3798577zm-6.9389 29.6330037c-.0031.2039-.0873.3985-.2344.5417-.1472.1431-.3455.2234-.552.2233h-3.6892c-.2055 0-.4026-.0806-.5479-.2241-.1454-.1434-.227-.338-.227-.5409v-17.4258c0-.2029.0816-.3975.227-.541.1453-.1435.3424-.2241.5479-.2241h3.6429c.2055 0 .4026.0806.5479.2241s.2269.3381.2269.541zm268.895-29.69009998h-23.685c-.136-.00003318-.267.05253578-.364.14644798-.097.093913-.153.221702-.156.355999v40.938053c.003.1343.059.262.156.356.097.0939.228.1464.364.1464h23.685c1.338-.003 2.621-.5301 3.566-1.4656s1.476-2.2031 1.476-3.5246v-31.97391c-.003-1.31953-.535-2.58415-1.48-3.5172-.945-.933056-2.226-1.4585739-3.562-1.46158998zm-6.939 29.69009998c0 .2029-.082.3975-.227.5409-.145.1435-.342.2241-.548.2241h-4.198c-.078.0001-.153-.0296-.209-.0828-.056-.0533-.089-.1259-.092-.2026v-18.385c0-.0757.031-.1484.085-.2019s.128-.0836.204-.0836h4.21c.206 0 .403.0806.548.2241s.227.3381.227.541zm-218.1599-14.6167v21.8222c-.0015.6553-.1337 1.3039-.3891 1.9088s-.6289 1.1541-1.0993 1.6165c-.4704.4623-1.0283.8286-1.6421 1.078-.6137.2494-1.2712.377-1.9349.3755h-19.0705c-.6641.0015-1.3219-.1266-1.9358-.3768-.6138-.2503-1.1716-.6178-1.6412-1.0815-.4696-.4636-.8418-1.0144-1.0952-1.6205s-.3831-1.2557-.3816-1.9114v-36.199045c-.0016-.082904.0138-.165269.0452-.242169s.0782-.146756.1376-.205388.1301-.104837.208-.135851c.0779-.0310145.1613-.0462008.2453-.0446507h10.7206c.0845-.0015173.1685.0136074.247.0444907.0785.030882.15.076904.2103.135377.0603.058472.1081.128223.1408.205176.0327.076954.0495.159567.0495.243015v29.004945c0 .1847.0744.3619.2067.4925s.3117.204.4988.204h3.7817c.1871 0 .3665-.0734.4988-.204s.2067-.3078.2067-.4925v-14.6167c.0029-.1656.0709-.3237.1895-.4409.1187-.1171.2788-.1842.4465-.1871h10.7091c.1698-.0001.3328.0657.4539.1832s.1907.2772.1937.4448zm40.8819-3.814c0 .0834-.017.166-.05.243-.032.0769-.08.1467-.14.2052-.061.0584-.132.1045-.211.1353-.078.0309-.162.0461-.247.0445h-25.2111c-.1126.0029-.2197.0484-.2993.127-.0797.0786-.1257.1844-.1286.2956v28.9592c0 .1665-.067.3263-.1863.4441s-.2811.1839-.4498.1839h-10.709c-.1687 0-.3305-.0661-.4498-.1839s-.1863-.2776-.1863-.4441v-28.9592c0-.1102-.0435-.2159-.1212-.2948-.0778-.079-.1837-.1248-.2951-.1278h-13.7969c-.0845.0016-.1685-.0136-.247-.0445-.0785-.0308-.15-.0769-.2103-.1353-.0603-.0585-.1082-.1283-.1409-.2052-.0327-.077-.0495-.1596-.0495-.243v-10.574245c0-.083448.0168-.166061.0495-.243015.0327-.076953.0806-.146704.1409-.205176.0603-.058473.1318-.104495.2103-.135377.0785-.0308833.1625-.046008.247-.0444907h51.8334c.085-.0015173.169.0136074.247.0444907.079.030882.15.076904.211.135377.06.058472.108.128223.14.205176.033.076954.05.159567.05.243015zm-4.7301 14.1028c.6637.0029 1.3203.135 1.9323.3885.612.2536 1.1678.6237 1.6348 1.0892s.837 1.0173 1.088 1.6239.379 1.2561.376 1.9114v6.646c0 1.3185-.53 2.5831-1.473 3.5165-.9432.9334-2.2228 1.4593-3.5581 1.4623h-18.631c-.1687 0-.3305-.0662-.4498-.184-.1192-.1177-.1863-.2775-.1863-.4441v-8.2561c0-.1676.0667-.3286.1856-.4482.119-.1196.2808-.1883.4505-.1913h11.3451c.1902 0 .3726-.0745.5071-.2073.1344-.1328.21-.3129.21-.5006v-.0686c0-.1877-.0756-.3678-.21-.5006-.1345-.1328-.3169-.2074-.5071-.2074l-6.5919-.1598c-2.7987 0-5.0539-1.3247-5.0539-4.0767v-7.2855c0-1.3235.5325-2.5927 1.4803-3.5286.9477-.9358 2.2332-1.4616 3.5736-1.4616h18.0529c.17.003.331.0717.45.1913s.186.2805.186.4482v7.9935c0 .1665-.067.3263-.186.4441-.12.1177-.281.1839-.45.1839h-10.7671c-.0936 0-.1863.0184-.2726.0541-.0864.0357-.1647.0881-.2303.154-.0657.0659-.1174.144-.1522.2298-.0347.0859-.0518.1777-.0503.2701v.0799c0 .1848.0743.362.2066.4926s.3117.204.4988.204l6.6151.08zm19.4291-24.677045v40.572645c-.003.1676-.073.3273-.194.4448-.121.1174-.284.1832-.454.1832h-10.686c-.168 0-.33-.0662-.449-.1839-.12-.1178-.187-.2776-.187-.4441v-40.572645c0-.166572.067-.326321.187-.444105.119-.117783.281-.1839537.449-.1839537h10.709c.167.0029929.326.0704817.443.1879427.117.117462.182.275504.182.440116zm61.294-.6280587c.084-.0015173.168.0136074.247.0444907.078.030882.15.076904.21.135377.06.058472.108.128223.141.205176.033.076954.049.159567.049.243015v10.585645c-.003.1676-.072.3273-.193.4448s-.285.1833-.454.1833h-14.803v2.8434c0 .0474.009.0944.028.1381s.046.0833.081.1163c.034.033.075.0588.12.076.045.0171.093.0251.141.0235h14.433c.171 0 .336.0674.458.1873.121.12.189.2826.189.4522v10.5857c0 .1696-.068.3322-.189.4522-.122.1199-.287.1872-.458.1872h-14.456c-.049-.0017-.097.0067-.142.0246s-.086.045-.12.0794c-.034.0345-.06.0756-.077.1206-.016.045-.023.093-.02.1409v2.3638c0 .0969.039.1898.109.2583.069.0686.163.1071.261.1071h14.433c.172 0 .337.0673.458.1873.122.1199.19.2825.19.4521v10.5514c-.003.1676-.073.3274-.194.4448-.121.1175-.284.1833-.454.1833h-26.16c-.169 0-.332-.0658-.453-.1833-.122-.1174-.191-.2772-.194-.4448v-40.561145c0-.083448.017-.166061.049-.243015.033-.076953.081-.146704.141-.205176.06-.058473.132-.104495.21-.135377.079-.0308833.163-.046008.247-.0444907zm48.214 30.0098037c.169.003.331.0717.45.1913s.186.2805.186.4482v10.5628c0 .1676-.067.3286-.186.4482s-.281.1883-.45.1912h-39.321c-.084.0001-.168-.0166-.246-.0488-.078-.0323-.149-.0796-.208-.1391-.059-.0596-.106-.1302-.137-.2077s-.046-.1604-.045-.2438v-40.561206c0-.165717.065-.325003.181-.444293.117-.11929.276-.1892671.444-.1951855h10.709c.171 0 .336.0673735.458.1872985.121.119926.189.282579.189.45218v28.982106c0 .112.045.2195.126.2987.08.0792.189.1238.302.1238h27.525zm-4.418-30.0098037h-15.809c-.665-.0045123-1.324.1204767-1.94.3678097-.615.247333-1.176.612154-1.648 1.073564-.473.46142-.849 1.01036-1.106 1.61541-.258.60504-.392 1.2543-.395 1.91059v22.00493c.003.1252.056.2443.146.3317.091.0875.213.1365.34.1365h10.57c.127 0 .249-.049.34-.1365.09-.0874.143-.2065.146-.3317v-5.1044c-.002-.04.005-.0798.019-.1172.015-.0373.037-.0714.065-.1002s.062-.0517.099-.0673.077-.0237.118-.0237h2.313c.041 0 .081.008.119.0235s.072.0382.101.0668c.029.0287.052.0627.068.1001s.024.0775.024.118v5.1044c0 .1241.05.2432.139.331s.209.1372.335.1372h10.582c.126 0 .246-.0494.335-.1372s.139-.2069.139-.331v-21.98209c.002-.65768-.129-1.30914-.384-1.91676s-.629-1.15936-1.101-1.62335c-.472-.46398-1.033-.831022-1.649-1.079918-.617-.248895-1.277-.3747128-1.943-.3701857zm-6.453 14.9364037c0 .0798-.032.1565-.088.2141-.056.0575-.132.0912-.213.0942h-2.313c-.081-.003-.157-.0367-.213-.0942-.056-.0576-.088-.1343-.088-.2141v-4.5677c-.001-.1015.018-.2022.056-.2963.038-.0942.095-.17986.167-.25212s.158-.12964.253-.1688.196-.05933.299-.05931h1.365c.103-.00002.204.02015.299.05931s.181.09654.253.1688.129.15792.167.25212c.038.0941.057.1948.056.2963zm43.38-14.9249845c.084-.0000138.168.016602.246.0488765.078.032275.148.079561.207.139096.06.059536.106.130127.138.207649.031.077523.046.160423.045.243857v40.561206c.001.0834-.014.1663-.045.2438-.032.0775-.078.1481-.138.2077-.059.0595-.129.1068-.207.1391-.078.0322-.162.0489-.246.0488h-10.71c-.128-.0013-.254-.0398-.361-.1108-.107-.0711-.19-.1715-.24-.2888l-5.574-11.956c-.014-.0279-.035-.0515-.062-.0677-.026-.0162-.057-.0244-.089-.0236-.024-.0016-.048.0016-.071.0094s-.045.02-.063.0359-.033.0352-.044.0568c-.01.0217-.017.0451-.018.0692v11.6362c.001.0834-.014.1663-.045.2438s-.078.1481-.137.2077c-.06.0595-.13.1068-.208.1391-.078.0322-.162.0489-.246.0488h-10.709c-.085.0001-.168-.0166-.246-.0488-.078-.0323-.149-.0796-.208-.1391-.059-.0596-.106-.1302-.137-.2077-.032-.0775-.047-.1604-.045-.2438v-40.561206c-.002-.083434.013-.166334.045-.243857.031-.077522.078-.148113.137-.207649.059-.059535.13-.106821.208-.139096.078-.0322745.161-.0488903.246-.0488765h10.709c.1-.000573.199.023065.287.0688485.089.045784.165.112319.222.193794.056.070072.096.152141.115.239804l5.575 11.990238c.01.0353.034.0655.066.0845s.07.0255.107.0182c.021-.0014.042-.007.061-.0164s.036-.0224.05-.0383c.014-.016.025-.0344.032-.0544.006-.02.009-.0411.007-.0621v-11.784706c-.001-.083434.014-.166334.045-.243857.032-.077522.078-.148113.138-.207649.059-.059535.129-.106821.207-.139096.078-.0322745.162-.0488903.246-.0488765zm61.409 19.6524845v17.1289c0 1.3235-.533 2.5928-1.48 3.5286-.948.9359-2.234 1.4616-3.574 1.4616h-20.493c-.169 0-.33-.0661-.45-.1839-.119-.1178-.186-.2776-.186-.4441v-10.6085c-.001-.0834.014-.1663.045-.2439.031-.0775.078-.1481.137-.2076.06-.0596.13-.1068.208-.1391s.162-.0489.246-.0489h13.173c.187 0 .366-.0734.498-.204.133-.1306.207-.3078.207-.4926v-1.8613c.003-.176-.062-.3466-.183-.4763-.12-.1297-.287-.2086-.465-.2203h-8.847c-.663-.003-1.319-.1351-1.93-.3888-.612-.2537-1.166-.6239-1.633-1.0896-.466-.4657-.834-1.0175-1.084-1.6241-.25-.6065-.376-1.2557-.372-1.9105v-16.64929c-.001-.65575.128-1.30533.382-1.91145.253-.60612.625-1.15684 1.095-1.62052.47-.46369 1.027-.831205 1.641-1.081453.614-.250249 1.272-.3782965 1.936-.3767907h20.319c.085-.0015173.169.0136074.247.0444907.079.030882.15.076904.211.135377.06.058472.108.128223.141.205176.032.076954.049.159567.049.243015v10.574245c0 .0834-.017.166-.049.243-.033.0769-.081.1467-.141.2052-.061.0584-.132.1045-.211.1353-.078.0309-.162.0461-.247.0445h-13.022c-.19 0-.372.0746-.507.2074-.134.1328-.21.3129-.21.5006v1.4503c.003.1763.071.3454.193.4742.122.1289.289.2081.467.2224h8.835c1.338-.0001 2.622.5241 3.57 1.4575.947.9334 1.481 2.1997 1.484 3.5212zm-176.596-19.72099998h-23.708c-.136.00298511-.265.05843938-.36.15448598-.095.096047-.148.22505-.148.35938v40.926634c0 .1332.053.261.149.3552.095.0943.224.1472.359.1472h23.708c1.341 0 2.626-.5257 3.574-1.4616.948-.9358 1.48-2.2051 1.48-3.5286v-31.97391c-.003-1.3215-.537-2.58785-1.484-3.52123-.948-.933378-2.231-1.45756344-3.57-1.45755998zm-6.939 29.69009998c-.005.203-.091.3959-.237.5384-.147.1426-.343.2238-.549.2266h-4.198c-.077 0-.15-.03-.204-.0836-.055-.0535-.085-.1261-.085-.2018v-18.385c0-.0757.03-.1484.085-.2019.054-.0535.127-.0836.204-.0836h4.198c.103-.0015.205.0171.3.0549s.182.0939.255.1651c.074.0712.132.156.171.2496.04.0936.06.194.06.2955z" fill="#FE9C27"/></svg>